<svg width="43" height="19" viewBox="0 0 43 19" fill="none" xmlns="http://www.w3.org/2000/svg">
<path d="M42.4416 9.63508C42.2043 9.68044 41.963 9.70055 41.7216 9.69508L39.6516 9.74508L32.0616 9.82508L32.2416 9.69508C31.5716 12.1551 30.7916 15.0351 29.9316 18.1851L29.7316 18.9151L29.4816 18.1951C28.1216 14.3251 26.6116 9.98508 25.0116 5.41508L23.5716 1.24508H24.0416L19.0416 9.70509L18.9816 9.88508H18.8516L5.49158 9.78507L1.70157 9.72507H0.701569C0.471569 9.72507 0.351562 9.72507 0.351562 9.72507H0.701569H1.70157L5.49158 9.66508L18.8516 9.56507L18.6416 9.68508L23.5716 1.19508L23.8516 0.705078L24.0416 1.23508C24.5116 2.59508 24.9916 3.98507 25.4916 5.40508C27.0716 9.97507 28.5616 14.3251 29.9016 18.2051H29.4516C30.3416 15.0651 31.1616 12.2051 31.8516 9.73508V9.59509H32.0016L39.5916 9.67507H41.6616C41.9204 9.64441 42.181 9.63105 42.4416 9.63508Z" fill="white"/>
</svg>
