<svg width="47" height="45" viewBox="0 0 47 45" fill="none" xmlns="http://www.w3.org/2000/svg">
<path d="M1.27872 25.6759H45.7217L45.3134 29.5797C45.0478 32.2546 43.9329 34.7743 42.1317 36.7695C40.3304 38.7644 37.9376 40.1307 35.3039 40.6676H11.7349C9.09678 40.1314 6.69928 38.7664 4.8916 36.7718C3.08393 34.7775 1.96093 32.2575 1.68658 29.5796L1.27872 25.6759ZM12.0811 42.8923C12.0824 43.2935 12.2427 43.6782 12.5272 43.961C12.8116 44.2441 13.197 44.4023 13.5982 44.4017H33.4017C33.8029 44.4023 34.1883 44.2441 34.4727 43.961C34.7572 43.6779 34.9175 43.2935 34.9185 42.8923V41.4447H12.0811L12.0811 42.8923ZM6.66823 20.632H15.5848C16.9872 18.914 17.8072 16.7946 17.9256 14.5803C18.095 12.694 17.7407 11.3618 16.8864 10.6151C16.1022 10.0249 15.1189 9.76274 14.1451 9.88353C14.1525 9.88353 14.1525 9.89096 14.1602 9.89872C14.2851 9.96587 14.4059 10.0401 14.522 10.1218C14.5442 10.1319 14.5648 10.1447 14.5834 10.1602C14.6988 10.2449 14.799 10.3296 14.8992 10.4143C15.0534 10.5506 15.1928 10.7028 15.3149 10.8688C15.3777 10.9492 15.4341 11.0342 15.4843 11.1229C15.5069 11.1692 15.5383 11.2232 15.5613 11.2768C15.5916 11.3311 15.6173 11.3878 15.6382 11.4462C15.6689 11.5309 15.7 11.6156 15.7229 11.7003C15.7543 11.8008 15.7776 11.9041 15.7924 12.0084V12.031C15.8079 12.1406 15.8154 12.2513 15.815 12.362V12.4929C15.8086 12.6363 15.7222 12.7642 15.5916 12.8239C15.4597 12.883 15.3062 12.8651 15.1911 12.7777C14.4403 12.1855 13.5629 11.7745 12.6272 11.5768C12.4976 12.4748 12.0593 13.2997 11.3874 13.9099C11.3139 13.9716 11.2218 14.0067 11.1256 14.0097C11.0281 14.0074 10.9346 13.9693 10.8637 13.9021C10.2 13.2903 9.76502 12.4697 9.63173 11.5768C8.69403 11.7752 7.81429 12.1859 7.06007 12.7777C6.94636 12.8688 6.7908 12.8871 6.65953 12.824C6.5303 12.7625 6.44492 12.6357 6.43615 12.4929C6.42806 12.3515 6.43548 12.2095 6.45876 12.0698C6.45944 12.0384 6.4645 12.007 6.47395 11.9773C6.48002 11.8855 6.49824 11.7948 6.52794 11.7077C6.54785 11.6207 6.57619 11.5353 6.61263 11.4536C6.62006 11.4229 6.63524 11.3919 6.64334 11.3689C6.67405 11.3072 6.69733 11.2535 6.72804 11.1995C6.73546 11.1844 6.75132 11.1611 6.75875 11.1456C6.79013 11.0821 6.82893 11.0227 6.87448 10.9684C6.95243 10.8486 7.03983 10.7356 7.13599 10.6296C7.23655 10.522 7.34453 10.4214 7.4596 10.3293C7.5281 10.2689 7.59997 10.2122 7.67522 10.1602C7.72921 10.1218 7.7832 10.0833 7.83685 10.0526C7.92155 9.99859 8.00625 9.94494 8.09095 9.89872C8.09837 9.89129 8.09837 9.88353 8.10613 9.88353C7.13465 9.7661 6.1554 10.0276 5.3725 10.6148C4.51777 11.3538 4.17124 12.6933 4.34064 14.58C4.45301 16.7936 5.26855 18.9137 6.66823 20.632ZM7.62286 11.2532C7.58541 11.2887 7.55436 11.3308 7.53074 11.3764C7.46967 11.4618 7.41534 11.5519 7.36877 11.646C7.45347 11.5998 7.53816 11.5458 7.62286 11.4999C7.80778 11.3997 8.00012 11.2998 8.20798 11.2073C8.41719 11.1095 8.63349 11.0268 8.85519 10.9607C8.93752 10.9306 9.02256 10.9074 9.10928 10.8915C9.17001 10.875 9.23143 10.8621 9.29385 10.853C9.37281 10.8358 9.45245 10.823 9.53242 10.8146C9.64242 10.799 9.75277 10.7913 9.86378 10.7913C9.91001 10.7913 9.96401 10.7987 10.0102 10.7987C10.2174 10.8102 10.3777 10.9846 10.372 11.1918C10.401 11.8859 10.6676 12.5493 11.1265 13.0707C11.5898 12.551 11.8591 11.8873 11.8887 11.1918C11.8887 10.9867 12.046 10.8159 12.2508 10.799C13.1926 10.8301 14.107 11.1233 14.8916 11.6453C14.8551 11.5711 14.814 11.4992 14.7684 11.43C14.7273 11.3646 14.681 11.3028 14.6297 11.2451C14.5332 11.1216 14.4222 11.0106 14.2987 10.9141C14.2383 10.8605 14.1742 10.8115 14.1064 10.7677C14.0294 10.7137 13.9525 10.6674 13.8833 10.6212C13.7291 10.5365 13.5752 10.4596 13.4365 10.3978C13.2283 10.3084 13.0147 10.2315 12.7971 10.167C12.7391 10.1485 12.68 10.1329 12.6203 10.1211C12.1634 10.2332 11.7133 10.3718 11.2725 10.5369C11.2634 10.5419 11.2526 10.5446 11.2418 10.5443C11.2054 10.5595 11.1659 10.5672 11.1264 10.5676C11.0981 10.5693 11.0694 10.5666 11.0417 10.5598C11.0208 10.5534 11.0002 10.5456 10.98 10.5369C10.5396 10.3718 10.0894 10.2332 9.63254 10.1211C9.57281 10.1329 9.51343 10.1485 9.45539 10.167C9.41692 10.1822 9.37845 10.1903 9.33222 10.2055C9.1834 10.2521 9.03729 10.3061 8.89389 10.3675C8.73461 10.4336 8.58007 10.5105 8.43193 10.5983C8.32969 10.6526 8.23217 10.7144 8.13904 10.7832C8.04692 10.8429 7.95952 10.9101 7.87752 10.9833C7.78473 11.0656 7.69946 11.1557 7.62286 11.2532ZM10.7951 9.65952C10.9338 9.70575 11.0492 9.74422 11.1262 9.77493C11.2264 9.73646 11.3803 9.68247 11.5726 9.62071C11.5871 7.79516 10.6703 6.08871 9.14002 5.09331C8.96759 4.96778 8.72632 5.00591 8.60113 5.17801C8.4756 5.35044 8.5134 5.59171 8.68583 5.7169C10.0275 6.57399 10.8262 8.06781 10.7951 9.65952ZM27.3965 17.5441L26.1719 17.0899C25.9725 17.0173 25.8692 16.797 25.9411 16.5969C26.0163 16.3998 26.234 16.2979 26.4337 16.3661L27.7042 16.8358L29.4059 12.8935C29.5898 12.4761 29.6839 12.0249 29.6832 11.569C29.6809 10.8823 29.4686 10.2125 29.0752 9.64966C28.6817 9.08681 28.1253 8.65762 27.4811 8.41972C26.619 8.09679 25.6614 8.14977 24.84 8.56583C24.0113 8.97311 23.3894 9.70671 23.1231 10.5911L22.7 11.977L24.1165 12.5007C24.3149 12.5746 24.4175 12.7936 24.3477 12.9933C24.2896 13.1435 24.1465 13.2437 23.9856 13.2474C23.941 13.2481 23.8965 13.2403 23.8547 13.2248L22.4762 12.7166L21.0438 17.4286L22.1604 17.8369C22.2562 17.8734 22.3338 17.9466 22.3757 18.0408C22.4179 18.1346 22.4206 18.2412 22.3835 18.3374C22.3285 18.4885 22.1827 18.5877 22.0217 18.5837C21.9772 18.583 21.933 18.5753 21.8908 18.5611L20.8204 18.168L20.0737 20.6319H26.0642L27.3965 17.5441ZM27.7508 7.69627C27.8719 7.7398 27.9904 7.79143 28.1048 7.85048L30.5765 1.12098C30.6483 0.921219 30.5451 0.700533 30.3457 0.627988C30.2508 0.590532 30.1445 0.592894 30.0518 0.635074C29.959 0.677254 29.8871 0.7552 29.8527 0.851371L27.3809 7.58865C27.5068 7.61396 27.631 7.65004 27.7508 7.69627ZM29.0053 8.4356L32.2005 3.93887C32.3213 3.76408 32.2805 3.52449 32.1084 3.39998C32.0247 3.33991 31.9208 3.31596 31.8195 3.3335C31.7183 3.35071 31.6282 3.40808 31.5692 3.49243L28.3743 7.99659C28.6001 8.11976 28.8113 8.26688 29.0053 8.4356ZM27.5581 2.02157C27.5672 1.91933 27.5348 1.81776 27.4683 1.73948C27.4018 1.66119 27.3063 1.61328 27.2041 1.60585C26.9949 1.59168 26.8116 1.7442 26.7884 1.9524L26.3186 7.4422C26.5744 7.4422 26.8292 7.46582 27.0809 7.51171L27.5581 2.02157ZM34.0875 13.972C36.6132 12.6553 39.5465 12.9941 41.0559 14.7649C41.1666 14.8982 41.3535 14.9401 41.5101 14.8655C42.0568 14.6192 42.5572 14.6961 42.6729 14.9195C42.7883 15.1429 42.5575 15.5971 42.0416 15.8896C41.8931 15.9777 41.8209 16.1531 41.8644 16.3202C42.1847 17.8494 41.7811 19.4404 40.7712 20.6323H30.9156C29.9684 18.3377 31.3461 15.3967 34.0875 13.972ZM35.72 15.35C35.7665 15.5194 35.9218 15.6369 36.0976 15.6352C36.1283 15.6365 36.1593 15.6342 36.1897 15.6278C36.8625 15.4442 37.5718 15.4415 38.2457 15.6203C38.3439 15.6494 38.4495 15.6382 38.539 15.589C38.6287 15.5397 38.6949 15.4567 38.7232 15.3585C38.7802 15.1547 38.6638 14.9424 38.4614 14.881C37.6545 14.6613 36.8038 14.6613 35.9974 14.881C35.8979 14.906 35.8128 14.9698 35.7605 15.0578C35.7086 15.1459 35.694 15.2512 35.72 15.35ZM0.824219 21.4023L1.19371 24.9056L45.8068 24.9059L46.1763 21.4023L0.824219 21.4023Z" fill="#F1A501"/>
</svg>
