<svg width="45" height="38" viewBox="0 0 45 38" fill="none" xmlns="http://www.w3.org/2000/svg">
<path d="M44.4513 9.57422C43.2213 4.15422 38.0713 -0.505776 32.5313 0.0442237C30.8969 0.278371 29.3273 0.842338 27.9176 1.70187C26.508 2.5614 25.2879 3.69855 24.3313 5.04422C23.6185 5.92554 22.9765 6.86178 22.4113 7.84422C21.8385 6.86416 21.1934 5.92823 20.4813 5.04422C19.5247 3.69855 18.3045 2.5614 16.8949 1.70187C15.4853 0.842338 13.9156 0.278371 12.2813 0.0442237C6.74126 -0.505776 1.59128 4.15422 0.36128 9.57422C-0.86872 14.9942 1.17128 20.7542 4.52128 25.1942C8.93833 31.3831 15.4578 35.7519 22.8613 37.4842C29.0713 36.0542 36.9413 29.6342 40.2913 25.1942C43.6413 20.7542 45.6813 15.0042 44.4513 9.57422Z" fill="#F1A501"/>
</svg>
