<svg width="41" height="45" viewBox="0 0 41 45" fill="none" xmlns="http://www.w3.org/2000/svg">
<path fill-rule="evenodd" clip-rule="evenodd" d="M22.2148 9.20418C22.9098 8.61806 22.9981 7.57836 22.412 6.88336L18.1648 1.84726C17.5787 1.15226 16.539 1.0639 15.844 1.65003L0.735674 14.3916C0.0406767 14.9777 -0.0476789 16.0174 0.538445 16.7124L4.78563 21.7485C5.37176 22.4435 6.41146 22.5319 7.10645 21.9457L22.2148 9.20418ZM36.2153 23.2507C35.6292 22.5557 34.5895 22.4673 33.8945 23.0535L18.7862 35.795C18.0912 36.3811 18.0029 37.4209 18.589 38.1158L22.8362 43.1519C23.4223 43.8469 24.462 43.9353 25.157 43.3492L40.2653 30.6076C40.9603 30.0215 41.0487 28.9818 40.4625 28.2868L36.2153 23.2507ZM12.795 3.14411L10.6714 0.626057C10.0853 -0.0689399 9.04561 -0.157296 8.35062 0.428828L0.796462 6.79961C0.101465 7.38573 0.0131085 8.42543 0.599232 9.12043L2.72283 11.6385L12.795 3.14411ZM38.2782 33.3607L28.2059 41.8551L30.3295 44.3731C30.9157 45.0681 31.9554 45.1565 32.6504 44.5704L40.2045 38.1996C40.8995 37.6135 40.9879 36.5738 40.4017 35.8788L38.2782 33.3607ZM23.2914 30.9183L12.6735 18.3281L18.9686 13.0191L29.5866 25.6093L23.2914 30.9183Z" fill="#F1A501"/>
</svg>
